<mxfile host="app.diagrams.net" modified="2021-04-06T14:38:22.679Z" agent="5.0 (Windows NT 10.0; Win64; x64) AppleWebKit/537.36 (KHTML, like Gecko) Chrome/89.0.4389.114 Safari/537.36" etag="KmlY96EVMaKKcpsel3qi" version="14.5.7" type="github" pages="2">
  <diagram id="C5RBs43oDa-KdzZeNtuy" name="MainLoop">
    <mxGraphModel dx="1278" dy="580" grid="1" gridSize="10" guides="1" tooltips="1" connect="1" arrows="1" fold="1" page="1" pageScale="1" pageWidth="827" pageHeight="1169" math="0" shadow="0">
      <root>
        <mxCell id="WIyWlLk6GJQsqaUBKTNV-0" />
        <mxCell id="WIyWlLk6GJQsqaUBKTNV-1" parent="WIyWlLk6GJQsqaUBKTNV-0" />
        <mxCell id="0K373mMc4VCgQYwYwleJ-3" value="" style="edgeStyle=orthogonalEdgeStyle;rounded=0;orthogonalLoop=1;jettySize=auto;html=1;" edge="1" parent="WIyWlLk6GJQsqaUBKTNV-1" source="XIw5_Q0r5yPtwuoXxhw9-1" target="0K373mMc4VCgQYwYwleJ-2">
          <mxGeometry relative="1" as="geometry" />
        </mxCell>
        <mxCell id="XIw5_Q0r5yPtwuoXxhw9-1" value="Main Loop" style="strokeWidth=2;html=1;shape=mxgraph.flowchart.start_2;whiteSpace=wrap;" vertex="1" parent="WIyWlLk6GJQsqaUBKTNV-1">
          <mxGeometry x="100" y="50" width="100" height="100" as="geometry" />
        </mxCell>
        <mxCell id="0K373mMc4VCgQYwYwleJ-5" value="Yes" style="edgeStyle=orthogonalEdgeStyle;rounded=0;orthogonalLoop=1;jettySize=auto;html=1;" edge="1" parent="WIyWlLk6GJQsqaUBKTNV-1" source="0K373mMc4VCgQYwYwleJ-2" target="0K373mMc4VCgQYwYwleJ-4">
          <mxGeometry relative="1" as="geometry" />
        </mxCell>
        <mxCell id="0K373mMc4VCgQYwYwleJ-7" value="No" style="edgeStyle=orthogonalEdgeStyle;rounded=0;orthogonalLoop=1;jettySize=auto;html=1;entryX=1;entryY=0.5;entryDx=0;entryDy=0;" edge="1" parent="WIyWlLk6GJQsqaUBKTNV-1" source="0K373mMc4VCgQYwYwleJ-2" target="0K373mMc4VCgQYwYwleJ-8">
          <mxGeometry relative="1" as="geometry">
            <mxPoint x="290" y="330" as="targetPoint" />
            <Array as="points">
              <mxPoint x="230" y="240" />
              <mxPoint x="230" y="460" />
            </Array>
          </mxGeometry>
        </mxCell>
        <mxCell id="0K373mMc4VCgQYwYwleJ-2" value="If (stringComplete)" style="rhombus;whiteSpace=wrap;html=1;strokeWidth=2;" vertex="1" parent="WIyWlLk6GJQsqaUBKTNV-1">
          <mxGeometry x="90" y="190" width="120" height="100" as="geometry" />
        </mxCell>
        <mxCell id="0K373mMc4VCgQYwYwleJ-9" value="" style="edgeStyle=orthogonalEdgeStyle;rounded=0;orthogonalLoop=1;jettySize=auto;html=1;" edge="1" parent="WIyWlLk6GJQsqaUBKTNV-1" source="0K373mMc4VCgQYwYwleJ-4" target="0K373mMc4VCgQYwYwleJ-8">
          <mxGeometry relative="1" as="geometry" />
        </mxCell>
        <mxCell id="0K373mMc4VCgQYwYwleJ-4" value="configureSetup()" style="whiteSpace=wrap;html=1;strokeWidth=2;" vertex="1" parent="WIyWlLk6GJQsqaUBKTNV-1">
          <mxGeometry x="90" y="330" width="120" height="60" as="geometry" />
        </mxCell>
        <mxCell id="0K373mMc4VCgQYwYwleJ-10" style="edgeStyle=orthogonalEdgeStyle;rounded=0;orthogonalLoop=1;jettySize=auto;html=1;exitX=0.5;exitY=1;exitDx=0;exitDy=0;entryX=0.5;entryY=0;entryDx=0;entryDy=0;entryPerimeter=0;" edge="1" parent="WIyWlLk6GJQsqaUBKTNV-1" source="0K373mMc4VCgQYwYwleJ-8" target="XIw5_Q0r5yPtwuoXxhw9-1">
          <mxGeometry relative="1" as="geometry">
            <mxPoint x="40" y="20" as="targetPoint" />
            <Array as="points">
              <mxPoint x="150" y="510" />
              <mxPoint x="50" y="510" />
              <mxPoint x="50" y="20" />
              <mxPoint x="150" y="20" />
            </Array>
          </mxGeometry>
        </mxCell>
        <mxCell id="0K373mMc4VCgQYwYwleJ-8" value="updateActions()" style="whiteSpace=wrap;html=1;strokeWidth=2;" vertex="1" parent="WIyWlLk6GJQsqaUBKTNV-1">
          <mxGeometry x="90" y="430" width="120" height="60" as="geometry" />
        </mxCell>
      </root>
    </mxGraphModel>
  </diagram>
  <diagram id="H8BbD9E-jyJD5Mcs4bjP" name="Initialization">
    <mxGraphModel dx="1278" dy="580" grid="1" gridSize="10" guides="1" tooltips="1" connect="1" arrows="1" fold="1" page="1" pageScale="1" pageWidth="850" pageHeight="1100" math="0" shadow="0">
      <root>
        <mxCell id="xYCEXouan64_DsXRIW32-0" />
        <mxCell id="xYCEXouan64_DsXRIW32-1" parent="xYCEXouan64_DsXRIW32-0" />
      </root>
    </mxGraphModel>
  </diagram>
</mxfile>
